<svg id="refinement" xmlns="http://www.w3.org/2000/svg" viewBox="0 0 388.67 382.62"><defs><style>.cls-1,.cls-2{fill:#231f20;}.cls-1{stroke:#231f20;stroke-miterlimit:10;stroke-width:0.68px;}</style></defs><title>otterv3</title><path class="cls-1" d="M19.06,130c-2.59,13.28,6.16,18.47,16,3.7,7.47-11.21,49.59-92.52,160.58-97.73S347.4,132.71,326.29,192a.19.19,0,0,0,0,.17c1.59,2.54,41.84,68,15,159.64a.21.21,0,0,0,.34.22c6.47-6.1,66.45-64.91,64.95-148.94C405,114.32,318.45,21.63,207.76,21.63c-133.88,0-162.08,103-175.29,94.43-6.25-4.06,15.33-35.43,20-42.77A.22.22,0,0,0,52.1,73C42.86,82.52,21.59,117,19.06,130Z" transform="translate(-18.26 -21.29)"/><path class="cls-1" d="M151,116.88c11.16-2.69,7.29-10.59,7.29-10.59-2.36-5-6.7-4.94-6.7-4.94-5.39.12-6.93,3.43-6.93,3.43-20.76,3.59-37.12,19.88-37.12,19.88-9.47-.66-14,7.39-14,7.39a14.07,14.07,0,0,0-1.33,12.88c-10.76,21.06-8.09,44.3-8.09,44.3-36,69.48,5.17,181.94,112.66,180.4,132.18-1.88,103.41-159.71,82-186.37s-27.14-69.52-15.44-75.58,14.7,22.21,14.7,22.21,21.11,38.32,23.57,44.9-3.34,20.83-3.34,20.83-2.93,0,11.73,34.85c33.44,79.5-.55,171.7-111.71,173.07C96.86,404.8,17.25,323.42,72.48,183.64c-3.92-28.28,7.07-47,7.07-47a15,15,0,0,1,2-14.9c6-7.58,13.67-6,13.67-6,12.95-11.45,27.47-20.4,53.52-21.4C173,93.37,195.56,110,195.56,110a5.93,5.93,0,0,1,6,1.6c2.51,2.74-.45,7.14-.45,7.14s2-6.24-1.6-7.5c-1.3-.45-3.65-1.37-10.72,3.34,0,0-2.17-3.7-12.28-3.87-9.76-.16-16,2-24.73,8.92S139.85,119.57,151,116.88Z" transform="translate(-18.26 -21.29)"/><path class="cls-1" d="M154.33,226.81l21-8.41c-10.63-29.91-3-43.94,3.59-45.59a47.88,47.88,0,0,0,10.85-4c17.14-11.62,13.35-28,14.85-28.76,9.66-4.56,7.58-14.45,7.58-14.45s-.84-7.41-5.67-10.63c0,0,12.24,14.83-2.19,24,0,0-4.25-11.09-8.27-14.58,0,0,0,17.59-16,17.65,0,0,9.71,1.86,18.53,0l3.07-.74s.54,15.46-12.47,25.22c-11.11,8.33-24,6.19-27.5,5.38a4.19,4.19,0,0,0-3.16.48,3.49,3.49,0,0,0-1.65,3.15,3.75,3.75,0,0,0,3.87,3.87c3,.06,4.23,13.93,5.27,24.89a17.44,17.44,0,0,1-9.74,17.58l-9.06,4.28a19.2,19.2,0,0,0-3.4,1.9c-.62.66-.84,2.24,1.17,1.84C146.54,229.5,148,229,154.33,226.81Z" transform="translate(-18.26 -21.29)"/><path class="cls-1" d="M164.32,248.14c-1.85.56,17.66,4.13,29.17,13,0,0,14.91-6.55,22.09,9.81,0,0,12.19.67,16-9.52,0,0-14.1-26-28.55-29,0,0,7.68,8.35.33,15.19-2.46,2.3-6.43,2.25-9.78,1.64a27.88,27.88,0,0,1-8.31-3l-6.26-3.2S173,245.49,164.32,248.14Z" transform="translate(-18.26 -21.29)"/><path class="cls-1" d="M273.6,235.4c-14,0-31,10.73-31,10.73s-11-44.24-2.33-73.15c0,0,2.33-8.56-9.17-14.32s-25.32-11.89-25.32-11.89a26.82,26.82,0,0,0,.38-5.45l37.7,14.58c9.24,3.16,13.83,6.44,16.39,12.74,7.72,19,21.47,60.61,22.63,67.9C282.88,236.54,281.19,235.4,273.6,235.4Z" transform="translate(-18.26 -21.29)"/><path class="cls-2" d="M153.87,112a4.1,4.1,0,0,0-5.53-5.41,3.34,3.34,0,0,1,2.71-2,4.27,4.27,0,0,1,4.8,4.69A3.35,3.35,0,0,1,153.87,112Z" transform="translate(-18.26 -21.29)"/></svg>